<svg id="Layer_1"  data-name="Layer 1" xmlns="http://www.w3.org/2000/svg" viewBox="0 0 659.34 227.71"><defs><style>.cls-1{fill:#002b45;}</style></defs><path class="cls-1" d="M1057.32,414.49l-23.25-7.66c-5.25-1.66-6.6-2.71-6.6-8.26v-2.11c0-7.51,2.85-7.51,9.9-7.51,14.85,0,32,.45,32,.45,1.8,0,2.4-.6,2.4-2.4V370.63c0-1.8-.6-2.4-2.4-2.4,0,0-18.75-.45-35.1-.45-18.6,0-29.39,8-29.39,25.38v8.11c0,18.77,10.64,21.93,20.69,25.08l23.1,7.51c5.25,1.65,6.6,3.16,6.6,8.71V445c0,7.5-2.7,8-9.75,8-16,0-37.43-.46-37.43-.46-1.8,0-2.4.61-2.4,2.41v16.37c0,1.8.6,2.4,2.4,2.4,0,0,21.83.45,40.58.45S1078,465.4,1078,448v-8.26C1078,420.79,1067.22,417.64,1057.32,414.49Z" transform="translate(-418.68 -307.09)"/><path class="cls-1" d="M963.81,368.53H915.37c-1.8,0-2.4.6-2.4,2.4V471c0,1.8.6,2.4,2.4,2.4h48.44c18.6,0,29.4-10.36,29.4-27.78V396.31C993.21,378.89,982.41,368.53,963.81,368.53Zm6.75,73.14c0,7.51-2.85,10.51-9.9,10.51h-25V389.7h25c7.05,0,9.9,3,9.9,10.52Z" transform="translate(-418.68 -307.09)"/><path class="cls-1" d="M898.34,368.53H834c-1.8,0-2.4.6-2.4,2.4V471c0,1.8.6,2.4,2.4,2.4h17.85c1.8,0,2.4-.6,2.4-2.4v-37.4h38.53c1.8,0,2.4-.6,2.4-2.4V414.79c0-1.81-.6-2.41-2.4-2.41H854.25V389.7h44.09c1.8,0,2.4-.6,2.4-2.4V370.93C900.74,369.13,900.14,368.53,898.34,368.53Z" transform="translate(-418.68 -307.09)"/><path class="cls-1" d="M787.42,368.53H739c-1.8,0-2.4.6-2.4,2.4V471c0,1.8.6,2.4,2.4,2.4h48.45c18.6,0,29.4-10.36,29.4-27.78V396.31C816.82,378.89,806,368.53,787.42,368.53Zm6.75,73.14c0,7.51-2.85,10.51-9.9,10.51h-25V389.7h25c7.05,0,9.9,3,9.9,10.52Z" transform="translate(-418.68 -307.09)"/><path class="cls-1" d="M734.8,307.09H551.62a4.1,4.1,0,0,0-3.91,2.27L419,532.35a1.54,1.54,0,0,0,1.49,2.45H603.63a4.1,4.1,0,0,0,3.91-2.27l128.74-223A1.54,1.54,0,0,0,734.8,307.09ZM630,452.63a1.26,1.26,0,0,1-1.9,1.1l-41.92-24.19,24.19,41.92a1.27,1.27,0,0,1-1.1,1.9H545.94a1.27,1.27,0,0,1-1.1-1.9L569,429.54l-41.93,24.19a1.27,1.27,0,0,1-1.9-1.1V389.26a1.27,1.27,0,0,1,1.9-1.1L569,412.35l-24.2-41.92a1.27,1.27,0,0,1,1.1-1.9h63.37a1.27,1.27,0,0,1,1.1,1.9l-24.19,41.92,41.92-24.19a1.26,1.26,0,0,1,1.9,1.1Z" transform="translate(-418.68 -307.09)"/></svg>